<?xml version="1.0" standalone="no"?>
<!DOCTYPE svg PUBLIC "-//W3C//DTD SVG 20010904//EN"
 "http://www.w3.org/TR/2001/REC-SVG-20010904/DTD/svg10.dtd">
<svg version="1.0" xmlns="http://www.w3.org/2000/svg"
 width="736.000000pt" height="736.000000pt" viewBox="0 0 736.000000 736.000000"
 preserveAspectRatio="xMidYMid meet">

<g transform="translate(0.000000,736.000000) scale(0.100000,-0.100000)"
fill="#000000" stroke="none">
<path d="M0 3680 l0 -3680 3680 0 3680 0 0 3680 0 3680 -3680 0 -3680 0 0
-3680z m4020 1981 c185 -20 462 -79 565 -121 11 -4 36 -13 55 -20 76 -26 114
-42 189 -79 35 -17 70 -31 77 -31 8 0 14 -4 14 -8 0 -5 16 -14 35 -22 19 -8
35 -16 35 -19 0 -4 15 -12 33 -20 29 -12 225 -137 237 -151 3 -3 25 -21 50
-40 64 -49 293 -276 314 -310 9 -16 22 -35 29 -42 24 -24 114 -163 154 -238
34 -64 54 -110 103 -235 45 -114 89 -376 90 -525 0 -136 -41 -360 -90 -485 -4
-11 -18 -47 -30 -80 -34 -89 -119 -251 -152 -289 -10 -11 -18 -24 -18 -29 0
-4 -6 -14 -12 -22 -7 -7 -20 -21 -28 -32 -92 -116 -111 -138 -190 -221 -47
-50 -176 -156 -255 -211 -28 -19 -52 -38 -55 -42 -8 -11 -136 -85 -235 -136
-105 -54 -214 -102 -295 -129 -30 -10 -59 -22 -64 -26 -6 -4 -20 -8 -32 -8
-13 0 -25 -4 -28 -9 -3 -5 -20 -11 -38 -14 -54 -9 -92 -18 -113 -27 -11 -5
-38 -11 -60 -15 -22 -4 -62 -11 -90 -16 -167 -30 -217 -33 -485 -34 -271 0
-350 6 -495 36 -137 28 -161 25 -285 -28 -19 -8 -48 -20 -65 -27 -16 -7 -91
-37 -165 -65 -161 -63 -167 -65 -205 -81 -16 -7 -39 -16 -50 -20 -11 -4 -32
-12 -47 -19 -16 -6 -38 -15 -50 -20 -13 -5 -39 -16 -58 -24 -57 -25 -383 -154
-407 -161 -20 -6 -23 -4 -23 18 0 14 9 60 20 103 28 113 114 476 151 643 12
52 25 105 30 118 16 41 11 90 -11 105 -74 51 -283 279 -319 346 -8 14 -17 28
-21 31 -10 8 -120 207 -120 218 0 6 -10 30 -21 54 -27 53 -34 72 -50 123 -6
22 -15 49 -20 60 -9 24 -19 67 -25 115 -3 19 -9 44 -14 55 -23 52 -31 368 -12
485 6 36 14 86 18 113 3 26 11 50 15 53 5 3 9 18 9 33 0 15 4 31 8 36 4 6 14
28 21 50 25 81 144 327 166 345 8 7 15 19 15 26 0 8 4 14 9 14 5 0 13 9 16 20
3 11 12 26 18 32 7 7 28 33 47 58 83 106 230 253 330 330 25 19 47 37 50 40
13 14 208 140 235 151 17 8 32 16 35 19 5 6 212 107 245 120 11 5 47 18 80 30
33 12 69 26 80 30 106 45 384 101 590 120 61 6 115 12 120 15 15 7 337 -3 445
-14z"/>
<path d="M3479 5466 c-3 -3 -41 -10 -85 -16 -43 -5 -104 -15 -134 -21 -30 -5
-73 -12 -95 -16 -22 -3 -44 -9 -50 -14 -5 -5 -21 -9 -36 -9 -15 0 -31 -4 -34
-10 -3 -5 -19 -10 -35 -10 -16 0 -31 -4 -34 -9 -3 -4 -20 -11 -37 -15 -17 -3
-45 -12 -62 -20 -18 -7 -59 -24 -92 -36 -88 -34 -322 -156 -345 -180 -3 -3
-17 -11 -32 -19 -15 -8 -36 -21 -45 -30 -10 -9 -34 -28 -53 -41 -19 -14 -45
-34 -56 -45 -12 -11 -35 -30 -50 -42 -86 -66 -221 -218 -303 -340 -33 -51 -61
-96 -61 -102 0 -5 -3 -11 -8 -13 -9 -4 -62 -112 -90 -186 -30 -74 -68 -242
-79 -342 -18 -155 22 -442 82 -600 30 -78 130 -276 146 -290 3 -3 12 -16 19
-29 24 -46 125 -166 194 -231 169 -158 183 -175 192 -227 7 -33 5 -67 -4 -108
-7 -33 -15 -76 -18 -95 -3 -19 -9 -44 -14 -55 -5 -11 -11 -33 -15 -50 -11 -52
-23 -108 -35 -155 -6 -25 -15 -63 -20 -85 -28 -124 -28 -125 -14 -125 16 0
331 123 387 151 22 10 47 19 58 19 10 0 19 5 19 10 0 6 7 10 15 10 9 0 35 9
57 20 23 11 45 20 50 20 5 0 30 9 56 21 26 12 57 25 70 30 12 5 32 13 45 19
12 5 50 19 85 30 61 20 66 20 140 4 220 -46 338 -58 572 -58 118 0 253 5 300
12 173 24 217 32 290 52 41 12 93 26 115 31 44 11 189 62 245 86 79 34 225
108 228 115 2 4 8 8 13 8 12 0 220 137 268 177 19 15 87 80 152 143 113 111
243 282 280 368 8 17 17 32 21 32 5 0 8 9 8 20 0 11 5 20 10 20 6 0 10 6 10
14 0 8 9 31 19 53 24 46 55 141 70 208 6 28 15 71 21 97 15 68 12 320 -5 413
-32 178 -48 227 -126 390 -47 99 -157 267 -216 331 -21 23 -50 54 -64 70 -51
58 -268 244 -284 244 -3 0 -15 9 -27 20 -12 11 -28 20 -35 20 -7 0 -13 5 -13
10 0 6 -7 10 -15 10 -8 0 -15 5 -15 10 0 6 -6 10 -14 10 -8 0 -16 4 -18 9 -1
5 -66 39 -143 75 -77 37 -148 71 -157 76 -10 6 -25 10 -33 10 -8 0 -25 5 -38
12 -47 24 -57 28 -72 28 -8 0 -23 4 -33 9 -29 14 -87 31 -110 31 -11 0 -23 4
-26 9 -3 4 -25 11 -48 15 -24 3 -68 11 -98 16 -137 27 -201 32 -445 36 -143 3
-263 3 -266 0z"/>
</g>
</svg>
